<svg width="0" height="0" class="hidden">
  <symbol fill="none" xmlns="http://www.w3.org/2000/svg" viewBox="0 0 96 50" id="logo">
    <path fill-rule="evenodd" clip-rule="evenodd" d="M75.308 31.676c1.48 0 2.47 1.44 1.966 2.87-.248.715-.734 1.26-1.221 1.805l-.125.14c-.345.385-.679.782-.965 1.209-.41.61-.615 1.316-.75 2.04a4.92 4.92 0 01-.163.657c-.363 1.174-1.323 1.725-2.488 1.364-1.434-.445-2.236-1.512-2.622-2.929-.275-1.02-.117-1.986.497-2.84.188-.267.504-.462.796-.616.23-.122.493-.184.75-.244l.17-.04c.678-.167 1.146-.576 1.492-1.18.28-.493.58-.985.942-1.418.44-.521 1.024-.818 1.72-.818zm15.059 6.207c-.076 1.542-.708 2.77-2.031 3.587-.52.32-1.089.475-1.71.362-.643-.119-1.117-.468-1.357-1.085a7.652 7.652 0 01-.334-1.192 5.877 5.877 0 00-1.597-3 10.507 10.507 0 01-1.142-1.41c-.31-.451-.474-.979-.41-1.542.194-1.666 1.979-2.466 3.354-1.506.62.433 1.042 1.038 1.352 1.72.34.729.896 1.132 1.65 1.316.334.083.668.207.978.361.896.445 1.16 1.269 1.241 2.2.009.04.008.09.007.14l-.001.035v.014zm-10.223 4.095l-.528-.087-.001.019a.107.107 0 000 .04c-.116.01-.233.015-.35.021-.118.006-.234.012-.352.021-.667.053-1.322.166-1.908.51-1.106.652-1.182 2.004-.146 2.763.19.139.4.25.611.36.076.04.151.079.226.12.112.062.226.122.34.182.191.1.382.199.561.31.293.184.504.45.521.812.041.842-.357 1.541-1.322 1.547-.194 0-.404 0-.58-.065-.249-.09-.49-.195-.733-.3-.22-.095-.44-.19-.666-.275-.134-.053-.34-.053-.45.024-.094.065-.147.279-.13.409.018.107.153.22.258.296 1.557 1.085 3.272 1.5 5.14 1.24a6.973 6.973 0 003.142-1.275c.234-.166.293-.386.17-.581-.129-.202-.34-.237-.591-.095l-.129.071-.129.071c-.585.32-1.194.54-1.873.474-.556-.059-.942-.397-1.082-.936-.164-.635-.036-1.073.456-1.405.173-.117.36-.212.547-.307a7.72 7.72 0 00.401-.215l.23-.13c.273-.154.548-.308.777-.516a1.55 1.55 0 00-.129-2.419 2.386 2.386 0 00-.83-.415 19.93 19.93 0 00-1.45-.27zM26.148 50v-4.81H7.534l18.045-21.998v-3.804H.307v4.81h17.739L0 46.195V50h26.148zm28.63-15.306c0 5.44-4.419 9.865-9.888 9.865-5.47 0-9.89-4.425-9.89-9.865s4.42-9.866 9.89-9.866c5.47 0 9.889 4.425 9.889 9.866zm5.441 0C60.22 43.147 53.356 50 44.89 50c-8.466 0-15.33-6.853-15.33-15.306 0-8.454 6.864-15.306 15.33-15.306 8.467 0 15.33 6.852 15.33 15.306zM52.348 4.988H49.83V16.18h2.518V4.988zM49.95 2.704c.31.293.692.44 1.149.44.47 0 .853-.154 1.148-.461a1.63 1.63 0 00.464-1.174c0-.433-.155-.79-.464-1.069C51.938.147 51.556 0 51.1 0c-.457 0-.84.154-1.148.461a1.467 1.467 0 00-.464 1.11c0 .448.154.825.463 1.133zM44.006.629h2.518v15.55h-2.518V.63zM19.12 15.593c.873.489 1.853.733 2.941.733 1.102 0 2.089-.244 2.962-.733a5.19 5.19 0 002.035-2.033c.497-.88.745-1.872.745-2.976 0-1.104-.248-2.089-.745-2.955a5.189 5.189 0 00-2.035-2.033c-.873-.49-1.86-.734-2.962-.734-1.088 0-2.068.245-2.941.734a5.328 5.328 0 00-2.055 2.033c-.484.866-.726 1.851-.726 2.955s.242 2.096.726 2.976a5.329 5.329 0 002.055 2.033zm5.238-2.473c-.604.643-1.37.964-2.297.964-.926 0-1.692-.321-2.297-.964-.59-.643-.886-1.488-.886-2.536s.295-1.893.886-2.536c.605-.643 1.37-.964 2.297-.964s1.693.321 2.297.964c.605.643.907 1.488.907 2.536s-.302 1.893-.907 2.536zm15.223-7.021c-.82-.825-1.908-1.237-3.264-1.237-.793 0-1.505.133-2.136.399a3.946 3.946 0 00-1.572 1.173V4.988h-2.397V16.18h2.518v-5.66c0-1.09.269-1.921.806-2.494.538-.587 1.27-.88 2.196-.88.82 0 1.451.251 1.894.754.444.49.665 1.223.665 2.2v6.079h2.519V9.767c0-1.621-.41-2.844-1.23-3.668zm22.176-1.237c1.357 0 2.445.412 3.264 1.237.82.824 1.23 2.047 1.23 3.668v6.413h-2.519v-6.078c0-.978-.222-1.712-.665-2.2-.443-.504-1.075-.755-1.894-.755-.927 0-1.659.293-2.196.88-.537.573-.806 1.404-.806 2.494v5.659h-2.518V4.988h2.397v1.446c.417-.517.94-.908 1.572-1.173.631-.266 1.343-.399 2.135-.399zm17.86 6.56c.028-.335.041-.594.041-.775 0-1.146-.235-2.152-.705-3.018a4.86 4.86 0 00-1.934-2.033c-.82-.49-1.753-.734-2.801-.734-1.061 0-2.015.245-2.861.734a5.228 5.228 0 00-1.995 2.054c-.47.866-.705 1.844-.705 2.934 0 1.104.242 2.096.725 2.976a5.257 5.257 0 002.096 2.033c.9.489 1.94.733 3.123.733.927 0 1.76-.153 2.498-.46a4.558 4.558 0 001.834-1.363l-1.35-1.614c-.766.81-1.74 1.216-2.922 1.216-.927 0-1.706-.238-2.337-.713-.618-.489-1-1.145-1.148-1.97h8.442zm-7.454-3.71c.564-.502 1.25-.754 2.055-.754.82 0 1.504.252 2.055.755.55.503.88 1.16.987 1.97h-6.105c.121-.825.457-1.481 1.008-1.97zm20.86 23.938A6.687 6.687 0 0096 26.084c0-3.698-3.003-6.696-6.708-6.696a6.704 6.704 0 00-5.645 3.078 15.294 15.294 0 019.376 9.184zm-26.763 0a6.687 6.687 0 01-2.977-5.566c0-3.698 3.003-6.696 6.707-6.696a6.704 6.704 0 015.645 3.079 15.294 15.294 0 00-9.375 9.183z" fill="#000"></path>
  </symbol>
  <symbol fill="none" xmlns="http://www.w3.org/2000/svg" viewBox="0 0 40 40" id="youtube">
    <circle cx="20" cy="20" r="20" fill="red"></circle>
    <path fill-rule="evenodd" clip-rule="evenodd" d="M31.3 12.378c.4.4.687.896.835 1.44.849 3.418.652 8.814.016 12.363a3.23 3.23 0 01-2.275 2.275C27.882 29 19.854 29 19.854 29s-8.027 0-10.022-.544a3.23 3.23 0 01-2.274-2.275c-.854-3.402-.62-8.802-.017-12.346a3.23 3.23 0 012.275-2.275c1.994-.543 10.022-.56 10.022-.56s8.027 0 10.022.544a3.23 3.23 0 011.44.834zM23.942 20l-6.659 3.857v-7.714L23.943 20z" fill="#fff"></path>
  </symbol>
    <symbol fill="none" xmlns="http://www.w3.org/2000/svg" viewBox="0 0 40 40" id="instagram">
    <circle cx="20" cy="20" r="20" fill="#C13584"></circle>
    <path d="M20 10.162c3.204 0 3.584.012 4.849.07 1.17.054 1.805.249 2.228.413.56.218.96.478 1.38.898.42.42.68.82.898 1.38.164.423.36 1.058.413 2.228.058 1.265.07 1.645.07 4.849s-.012 3.584-.07 4.849c-.053 1.17-.249 1.805-.413 2.228-.218.56-.478.96-.898 1.38-.42.42-.82.68-1.38.898-.423.164-1.058.36-2.228.413-1.265.058-1.645.07-4.849.07s-3.584-.012-4.849-.07c-1.17-.054-1.805-.249-2.228-.413a3.718 3.718 0 01-1.38-.898c-.42-.42-.68-.82-.898-1.38-.164-.423-.36-1.058-.413-2.228-.058-1.265-.07-1.645-.07-4.85 0-3.203.012-3.583.07-4.848.054-1.17.249-1.805.413-2.228.218-.56.478-.96.898-1.38.42-.42.82-.68 1.38-.898.423-.164 1.058-.36 2.228-.413 1.265-.058 1.645-.07 4.849-.07zM20 8c-3.259 0-3.668.014-4.948.072-1.277.058-2.15.261-2.912.558a5.881 5.881 0 00-2.126 1.384A5.88 5.88 0 008.63 12.14c-.297.763-.5 1.635-.558 2.912C8.014 16.332 8 16.741 8 20c0 3.259.014 3.668.072 4.948.058 1.277.261 2.15.558 2.912.307.79.717 1.459 1.384 2.126a5.88 5.88 0 002.126 1.384c.763.297 1.635.5 2.912.558 1.28.058 1.689.072 4.948.072 3.259 0 3.668-.014 4.948-.072 1.277-.059 2.15-.261 2.912-.558a5.88 5.88 0 002.126-1.384 5.882 5.882 0 001.384-2.126c.297-.763.5-1.635.558-2.912.058-1.28.072-1.689.072-4.948 0-3.259-.014-3.668-.072-4.948-.059-1.277-.261-2.15-.558-2.912a5.881 5.881 0 00-1.384-2.126A5.881 5.881 0 0027.86 8.63c-.763-.297-1.635-.5-2.912-.558C23.668 8.014 23.259 8 20 8z" fill="#fff"></path>
    <path d="M20.005 13.843a6.162 6.162 0 100 12.324 6.162 6.162 0 000-12.324zm0 10.162a4 4 0 110-8 4 4 0 010 8zm7.845-10.409a1.44 1.44 0 11-2.88 0 1.44 1.44 0 012.88 0z" fill="#fff"></path>
  </symbol>
    <symbol fill="none" xmlns="http://www.w3.org/2000/svg" viewBox="0 0 40 40" id="facebook">
    <circle cx="20" cy="20" r="20" fill="#3B5998"></circle>
    <path fill-rule="evenodd" clip-rule="evenodd" d="M25.315 12.958c-.623-.125-1.465-.218-1.995-.218-1.433 0-1.526.623-1.526 1.62v1.776h3.583l-.312 3.678h-3.271V31h-4.488V19.814H15v-3.678h2.306v-2.275c0-3.116 1.465-4.861 5.142-4.861 1.277 0 2.212.187 3.427.436l-.56 3.522z" fill="#fff"></path>
  </symbol>
   <symbol fill="none" xmlns="http://www.w3.org/2000/svg" viewBox="0 0 96 50" id="logofooter">
    <path fill-rule="evenodd" clip-rule="evenodd" d="M75.308 31.676c1.48 0 2.47 1.44 1.966 2.87-.248.715-.734 1.26-1.221 1.805l-.125.14c-.345.385-.679.782-.965 1.209-.41.61-.615 1.316-.75 2.04a4.92 4.92 0 01-.163.657c-.363 1.174-1.323 1.725-2.488 1.364-1.434-.445-2.236-1.512-2.622-2.929-.275-1.02-.117-1.986.497-2.84.188-.267.504-.462.796-.616.23-.122.493-.184.75-.244l.17-.04c.678-.167 1.146-.576 1.492-1.18.28-.493.58-.985.942-1.418.44-.521 1.024-.818 1.72-.818zm15.059 6.207c-.076 1.542-.708 2.77-2.031 3.587-.52.32-1.089.475-1.71.362-.643-.119-1.117-.468-1.357-1.085a7.652 7.652 0 01-.334-1.192 5.877 5.877 0 00-1.597-3 10.507 10.507 0 01-1.142-1.41c-.31-.451-.474-.979-.41-1.542.194-1.666 1.979-2.466 3.354-1.506.62.433 1.042 1.038 1.352 1.72.34.729.896 1.132 1.65 1.316.334.083.668.207.978.361.896.445 1.16 1.269 1.241 2.2.009.04.008.09.007.14l-.001.035v.014zm-10.223 4.095l-.528-.087-.001.019a.107.107 0 000 .04c-.116.01-.233.015-.35.021-.118.006-.234.012-.352.021-.667.053-1.322.166-1.908.51-1.106.652-1.182 2.004-.146 2.763.19.139.4.25.611.36.076.04.151.079.226.12.112.062.226.122.34.182.191.1.382.199.561.31.293.184.504.45.521.812.041.842-.357 1.541-1.322 1.547-.194 0-.404 0-.58-.065-.249-.09-.49-.195-.733-.3-.22-.095-.44-.19-.666-.275-.134-.053-.34-.053-.45.024-.094.065-.147.279-.13.409.018.107.153.22.258.296 1.557 1.085 3.272 1.5 5.14 1.24a6.973 6.973 0 003.142-1.275c.234-.166.293-.386.17-.581-.129-.202-.34-.237-.591-.095l-.129.071-.129.071c-.585.32-1.194.54-1.873.474-.556-.059-.942-.397-1.082-.936-.164-.635-.036-1.073.456-1.405.173-.117.36-.212.547-.307a7.72 7.72 0 00.401-.215l.23-.13c.273-.154.548-.308.777-.516a1.55 1.55 0 00-.129-2.419 2.386 2.386 0 00-.83-.415 19.93 19.93 0 00-1.45-.27zM26.148 50v-4.81H7.534l18.045-21.998v-3.804H.307v4.81h17.739L0 46.195V50h26.148zm28.63-15.306c0 5.44-4.419 9.865-9.888 9.865-5.47 0-9.89-4.425-9.89-9.865s4.42-9.866 9.89-9.866c5.47 0 9.889 4.425 9.889 9.866zm5.441 0C60.22 43.147 53.356 50 44.89 50c-8.466 0-15.33-6.853-15.33-15.306 0-8.454 6.864-15.306 15.33-15.306 8.467 0 15.33 6.852 15.33 15.306zM52.348 4.988H49.83V16.18h2.518V4.988zM49.95 2.704c.31.293.692.44 1.149.44.47 0 .853-.154 1.148-.461a1.63 1.63 0 00.464-1.174c0-.433-.155-.79-.464-1.069C51.938.147 51.556 0 51.1 0c-.457 0-.84.154-1.148.461a1.467 1.467 0 00-.464 1.11c0 .448.154.825.463 1.133zM44.006.629h2.518v15.55h-2.518V.63zM19.12 15.593c.873.489 1.853.733 2.941.733 1.102 0 2.089-.244 2.962-.733a5.19 5.19 0 002.035-2.033c.497-.88.745-1.872.745-2.976 0-1.104-.248-2.089-.745-2.955a5.189 5.189 0 00-2.035-2.033c-.873-.49-1.86-.734-2.962-.734-1.088 0-2.068.245-2.941.734a5.328 5.328 0 00-2.055 2.033c-.484.866-.726 1.851-.726 2.955s.242 2.096.726 2.976a5.329 5.329 0 002.055 2.033zm5.238-2.473c-.604.643-1.37.964-2.297.964-.926 0-1.692-.321-2.297-.964-.59-.643-.886-1.488-.886-2.536s.295-1.893.886-2.536c.605-.643 1.37-.964 2.297-.964s1.693.321 2.297.964c.605.643.907 1.488.907 2.536s-.302 1.893-.907 2.536zm15.223-7.021c-.82-.825-1.908-1.237-3.264-1.237-.793 0-1.505.133-2.136.399a3.946 3.946 0 00-1.572 1.173V4.988h-2.397V16.18h2.518v-5.66c0-1.09.269-1.921.806-2.494.538-.587 1.27-.88 2.196-.88.82 0 1.451.251 1.894.754.444.49.665 1.223.665 2.2v6.079h2.519V9.767c0-1.621-.41-2.844-1.23-3.668zm22.176-1.237c1.357 0 2.445.412 3.264 1.237.82.824 1.23 2.047 1.23 3.668v6.413h-2.519v-6.078c0-.978-.222-1.712-.665-2.2-.443-.504-1.075-.755-1.894-.755-.927 0-1.659.293-2.196.88-.537.573-.806 1.404-.806 2.494v5.659h-2.518V4.988h2.397v1.446c.417-.517.94-.908 1.572-1.173.631-.266 1.343-.399 2.135-.399zm17.86 6.56c.028-.335.041-.594.041-.775 0-1.146-.235-2.152-.705-3.018a4.86 4.86 0 00-1.934-2.033c-.82-.49-1.753-.734-2.801-.734-1.061 0-2.015.245-2.861.734a5.228 5.228 0 00-1.995 2.054c-.47.866-.705 1.844-.705 2.934 0 1.104.242 2.096.725 2.976a5.257 5.257 0 002.096 2.033c.9.489 1.94.733 3.123.733.927 0 1.76-.153 2.498-.46a4.558 4.558 0 001.834-1.363l-1.35-1.614c-.766.81-1.74 1.216-2.922 1.216-.927 0-1.706-.238-2.337-.713-.618-.489-1-1.145-1.148-1.97h8.442zm-7.454-3.71c.564-.502 1.25-.754 2.055-.754.82 0 1.504.252 2.055.755.55.503.88 1.16.987 1.97h-6.105c.121-.825.457-1.481 1.008-1.97zm20.86 23.938A6.687 6.687 0 0096 26.084c0-3.698-3.003-6.696-6.708-6.696a6.704 6.704 0 00-5.645 3.078 15.294 15.294 0 019.376 9.184zm-26.763 0a6.687 6.687 0 01-2.977-5.566c0-3.698 3.003-6.696 6.707-6.696a6.704 6.704 0 015.645 3.079 15.294 15.294 0 00-9.375 9.183z" fill="#fff"></path>
  </symbol>
    <symbol fill="none" xmlns="http://www.w3.org/2000/svg" viewBox="0 0 50 50" id="logo-yemfooter">
    <path fill-rule="evenodd" clip-rule="evenodd" d="M50 25c0 13.807-11.193 25-25 25S0 38.807 0 25 11.193 0 25 0s25 11.193 25 25zM6.661 36.281c-.364.455-.741.925-1.14 1.413.434.029.756.065 1.025.095.197.022.366.041.53.051.837 0 1.775-.04 2.729-.082 1.378-.06 2.791-.12 3.984-.064.66.26.876.405 1.283.678.088.06.185.124.298.198 5.569 3.648 11.454 4.28 17.242 1.094 1.386-.778 3.794-1.92 3.794-1.92s2.796.048 4.11.12c.85.05 1.702.025 2.553 0 .222 0 .437-.023.702-.052.2-.023.427-.048.709-.069a24.311 24.311 0 01-.435-.611 8.652 8.652 0 00-.465-.63l-.328-.412c-.743-.937-1.493-1.883-2.299-2.773-.68-.754-.802-1.362-.413-2.359C44.6 20.501 37.28 9.071 26.119 8.366 14.08 7.588 5.204 19.626 9.533 30.91c.39 1.02.243 1.677-.438 2.456-.829.914-1.6 1.874-2.434 2.915zm24.202-17.453c-1.91 2.31-3.844 4.649-5.839 7.047-1.648-1.987-3.273-3.94-4.882-5.873a3131.066 3131.066 0 01-4.82-5.8c4.133-4.499 13.302-5.617 19.43-.073a4830.048 4830.048 0 00-3.89 4.7zm-5.887 18.575s3.623-5.059 3.964-5.57c1.377 1.227 2.666 2.38 3.924 3.505l1.086.97c-3.94 4.135-12.963 4.67-17.948.073 1.654-1.483 3.307-2.967 5.131-4.596.584 1.021 3.843 5.618 3.843 5.618zm-13.424-7.028c-1.41-2.287-1.557-7.126-.268-10.288l.532.878c.994 1.64 1.935 3.194 2.824 4.765.122.218.073.73-.097.948-.728.97-1.5 1.899-2.28 2.838-.237.285-.474.57-.711.859zm27.261-10.288c1.143 3.575 1.07 6.858-.194 10.385l-.236-.285c-1.064-1.285-1.966-2.374-2.804-3.485-.17-.243-.243-.73-.097-.972a151.15 151.15 0 012.35-4.002c.318-.531.645-1.076.981-1.64z" fill="#fff"></path>
  </symbol>
   <symbol fill="none" xmlns="http://www.w3.org/2000/svg" viewBox="0 0 138 52" id="rs-logo">
    <g clip-path="url(#clip0)">
      <path d="M71.247 16.93l6.565-.424c.15 1.07.425 1.867.874 2.44.724.896 1.722 1.344 3.046 1.344.973 0 1.747-.224 2.271-.697.5-.373.8-.971.8-1.593 0-.598-.275-1.17-.75-1.544-.5-.448-1.672-.896-3.52-1.294-3.02-.673-5.192-1.569-6.465-2.714A5.402 5.402 0 0172.12 8.14c0-1.145.349-2.29.998-3.237.749-1.07 1.772-1.917 2.996-2.39 1.323-.572 3.17-.87 5.492-.87 2.846 0 5.017.522 6.515 1.592 1.498 1.046 2.397 2.739 2.671 5.054l-6.49.374c-.175-.996-.524-1.718-1.099-2.191-.574-.473-1.323-.697-2.296-.697-.8 0-1.398.174-1.798.498-.374.298-.624.747-.599 1.244 0 .374.2.722.5.947.324.298 1.098.572 2.321.821 3.02.647 5.168 1.295 6.49 1.967 1.324.672 2.272 1.494 2.847 2.464.599.996.898 2.142.873 3.312a7.03 7.03 0 01-1.198 3.958 7.57 7.57 0 01-3.32 2.739c-1.423.622-3.22.946-5.367.946-3.795 0-6.416-.722-7.889-2.191-1.473-1.469-2.347-3.311-2.521-5.552zM1.573 24.297V2.041H13.08c2.122 0 3.77.175 4.893.548a5.17 5.17 0 012.721 2.042 6.172 6.172 0 011.049 3.61c.074 2.19-1.049 4.282-2.971 5.377a7.63 7.63 0 01-2.422.871 6.9 6.9 0 011.798.822 6.93 6.93 0 011.098 1.17c.375.423.7.896.974 1.394l3.345 6.448h-7.839l-3.694-6.846c-.475-.872-.874-1.444-1.249-1.718a2.97 2.97 0 00-1.697-.523h-.6v9.037H1.574v.025zm6.915-13.244h2.92c.625-.05 1.224-.15 1.823-.3.45-.074.849-.323 1.123-.696a2.21 2.21 0 00-.25-2.938c-.449-.373-1.322-.572-2.57-.572H8.487v4.506zM0 43.368l6.565-.423c.15 1.07.425 1.867.874 2.44.7.896 1.723 1.37 3.046 1.37.973 0 1.747-.225 2.272-.698.499-.398.798-.97.798-1.593 0-.598-.274-1.17-.749-1.544-.499-.448-1.672-.896-3.544-1.294-3.021-.672-5.193-1.569-6.466-2.714a5.402 5.402 0 01-1.947-4.307c0-1.145.35-2.29.998-3.236.75-1.07 1.773-1.917 2.996-2.39 1.323-.573 3.17-.872 5.492-.872 2.846 0 5.018.523 6.516 1.594 1.497 1.07 2.371 2.738 2.646 5.053l-6.49.374c-.176-.996-.525-1.718-1.1-2.19-.549-.474-1.322-.698-2.296-.673-.799 0-1.398.174-1.797.523-.4.299-.624.747-.6 1.245 0 .373.2.721.5.946.324.298 1.098.572 2.322.821 3.02.647 5.167 1.295 6.49 1.967 1.323.672 2.272 1.494 2.846 2.465.6.995.899 2.14.899 3.286a7.148 7.148 0 01-1.199 3.933 7.57 7.57 0 01-3.32 2.739c-1.423.622-3.22.946-5.367.946-3.795 0-6.416-.722-7.889-2.19C1.024 47.45.2 45.608 0 43.367z" fill="#fff"></path>
      <path d="M33.201 41.626l6.041 1.817c-.324 1.519-.998 2.963-1.922 4.233a8.36 8.36 0 01-3.245 2.564c-1.298.572-2.946.871-4.943.871-2.421 0-4.419-.348-5.941-1.045-1.548-.698-2.871-1.942-3.994-3.71-1.124-1.768-1.673-4.033-1.673-6.797 0-3.684.973-6.522 2.946-8.489 1.972-1.967 4.743-2.963 8.338-2.963 2.82 0 5.017.573 6.64 1.693 1.598 1.145 2.796 2.888 3.595 5.229l-6.091 1.344a5.383 5.383 0 00-.674-1.494 3.957 3.957 0 00-1.423-1.22c-.575-.299-1.224-.423-1.873-.423-1.572 0-2.77.622-3.595 1.892-.624.921-.948 2.39-.948 4.382 0 2.464.374 4.157 1.123 5.079.75.92 1.798 1.369 3.17 1.369 1.324 0 2.322-.374 2.996-1.096.674-.772 1.174-1.842 1.473-3.236zM47.306 28.48h6.89v7.792h7.539V28.48h6.94v22.257h-6.94v-9.013h-7.54v9.013h-6.89V28.48z" fill="#fff"></path>
      <path d="M67.727 39.61c0-3.636 1.024-6.474 3.046-8.49 2.022-2.017 4.868-3.038 8.487-3.038 3.72 0 6.566.996 8.588 2.988 2.022 1.992 3.02 4.78 3.02 8.365 0 2.614-.449 4.73-1.323 6.398a9.338 9.338 0 01-3.794 3.884c-1.673.921-3.745 1.394-6.216 1.394-2.521 0-4.593-.398-6.241-1.195a9.503 9.503 0 01-4.02-3.784c-1.023-1.743-1.547-3.909-1.547-6.523zm6.89.024c0 2.24.424 3.859 1.248 4.855.824.97 1.972 1.469 3.42 1.469 1.473 0 2.621-.473 3.445-1.444.824-.971 1.224-2.689 1.224-5.179 0-2.09-.425-3.634-1.274-4.58-.848-.971-1.997-1.444-3.445-1.444-1.273-.05-2.496.498-3.345 1.468-.849.971-1.273 2.59-1.273 4.855zm23.316-.025c0-3.635 1.024-6.473 3.046-8.49 2.022-2.016 4.868-3.037 8.488-3.037 3.719 0 6.59.996 8.587 2.988 1.997 1.992 3.021 4.78 3.021 8.365 0 2.614-.45 4.73-1.323 6.398a9.34 9.34 0 01-3.795 3.884c-1.672.921-3.744 1.394-6.216 1.394-2.521 0-4.593-.398-6.241-1.195a9.508 9.508 0 01-4.019-3.784c-1.023-1.743-1.548-3.909-1.548-6.523zm6.89.025c0 2.24.425 3.859 1.248 4.855.824.97 1.973 1.469 3.421 1.469 1.472 0 2.621-.473 3.445-1.444.823-.971 1.223-2.689 1.223-5.179 0-2.09-.425-3.634-1.273-4.58-.849-.971-1.997-1.444-3.445-1.444a4.2 4.2 0 00-3.346 1.468c-.848.971-1.273 2.59-1.273 4.855z" fill="#fff"></path>
      <path d="M120.35 28.48h6.89v16.78H138v5.478h-17.675V28.48h.025z" fill="#fff"></path>
      <path d="M112.722 27.2c6.931-5.22 9.071-14.068 4.779-19.76-4.292-5.694-13.39-6.076-20.32-.855-6.931 5.22-9.071 14.068-4.78 19.76 4.293 5.693 13.39 6.076 20.321.855z" stroke="#fff" stroke-width=".181" stroke-miterlimit="10"></path>
      <path d="M112.722 27.2c6.931-5.22 9.071-14.068 4.779-19.76-4.292-5.694-13.39-6.076-20.32-.855-6.931 5.22-9.071 14.068-4.78 19.76 4.293 5.693 13.39 6.076 20.321.855z" stroke="#fff" stroke-width=".181" stroke-miterlimit="10"></path>
      <path d="M97.957 15.261l2.497-1.743 3.07 4.357a8.64 8.64 0 011.223 2.266 2.901 2.901 0 01-.124 1.892 4.061 4.061 0 01-1.548 1.817c-.824.573-1.523.896-2.122.996-.574.1-1.174 0-1.723-.25a4.166 4.166 0 01-1.523-1.269l2.147-1.991c.175.273.4.522.649.722.175.124.375.199.6.199a.791.791 0 00.474-.175.823.823 0 00.399-.746c-.075-.424-.249-.847-.524-1.17l-3.495-4.905zm7.489 2.763l2.272-1.792c.25.299.574.523.924.647a1.6 1.6 0 001.448-.274c.299-.199.549-.473.649-.821a.874.874 0 00-.55-1.096.72.72 0 00-.224-.05c-.3-.024-.824.1-1.598.424-1.273.523-2.272.722-3.021.647-.723-.075-1.398-.448-1.797-1.07a2.676 2.676 0 01-.474-1.42c0-.572.15-1.145.474-1.618a6.276 6.276 0 011.748-1.693c1.048-.722 1.972-1.07 2.771-1.07.798 0 1.547.373 2.246 1.145l-2.246 1.768c-.45-.573-1.299-.697-1.873-.25l-.075.075a1.23 1.23 0 00-.524.648.645.645 0 00.1.597c.1.125.25.224.424.224.2.025.55-.074 1.049-.299 1.248-.522 2.197-.821 2.846-.92.549-.1 1.123-.05 1.647.174.475.199.874.547 1.149.97a3.22 3.22 0 01.574 1.718c.025.648-.15 1.27-.499 1.818a6.108 6.108 0 01-1.698 1.693c-1.373.946-2.496 1.344-3.395 1.195a3.665 3.665 0 01-2.347-1.37z" fill="#fff"></path>
    </g>
    <defs>
      <clipPath id="clip0">
        <path fill="#fff" d="M0 0h138v51.111H0z"></path>
      </clipPath>
    </defs>
  </symbol>
   <symbol fill="none" xmlns="http://www.w3.org/2000/svg" viewBox="0 0 106 80" id="heart">
    <path d="M97.363 5.66C90.963 1.104 82.348-.856 73.96.35c-8.7 1.257-16.32 5.461-20.94 11.56C48.402 5.81 40.781 1.607 32.082.35 23.694-.856 15.078 1.087 8.68 5.66.975 11.356-1.78 20.988 1.14 32.094c.021.034.042.067.063.118.083.184.186.352.331.502.042.034.042.067.083.1.042.034.104.051.145.085a.914.914 0 00.29.15c.207.084.414.134.642.151.062 0 .124.034.166.034a.726.726 0 00.186-.034h.187c.062-.017.082-.033.145-.05.103-.034.227-.067.33-.117.104-.05.208-.1.29-.168.042-.033.084-.033.125-.067l6.213-5.025.021-.017c1.367-1.106 3.563-1.122 4.95-.034 1.388 1.09 1.43 2.865.104 4.004L5.22 39.968c-.456.368-.622.888-.456 1.373.166.486.642.888 1.243 1.005.6.118 1.263 0 1.719-.368l10.086-8.158c.02-.017.042-.017.042-.017.02-.017.041-.05.062-.067l6.13-4.958c.02-.017.042-.017.042-.034 1.387-1.089 3.603-1.089 4.991 0 1.367 1.106 1.367 2.915.02 4.02l-.02.017L10.253 48.01c-.456.368-.622.887-.456 1.373.166.486.642.871 1.243 1.005.6.134 1.263-.016 1.698-.368l16.341-13.2.041-.034c1.388-1.089 3.625-1.055 4.971.067 1.346 1.122 1.346 2.915-.02 4.02l-3.75 3.032-13.648 11.04c-.456.368-.621.888-.456 1.373.166.486.642.871 1.243 1.005.6.134 1.263-.016 1.698-.368l13.649-11.04c1.388-1.122 3.624-1.122 4.991 0 1.388 1.123 1.388 2.932 0 4.038 0 0 0 .017-.02.017l-13.69 11.07-.021.017-.02.017c-.063.067-.125.15-.166.218-.063.067-.125.15-.187.234a.633.633 0 00-.062.268.689.689 0 00.02.536c.021.084.042.184.083.268.063.084.125.168.187.235.041.067.104.15.166.217l.02.017.021.017c8.637 6.265 17.977 11.86 27.919 16.701a2.093 2.093 0 001.843 0c9.941-4.84 19.282-10.436 27.918-16.701l.021-.017.02-.017a.92.92 0 00.166-.217.706.706 0 00.187-.235c.062-.184.103-.351.145-.536 0-.084-.02-.184-.042-.268-.02-.084-.041-.184-.062-.268a.705.705 0 00-.186-.234.943.943 0 00-.166-.218l-.02-.017-.021-.017L68.16 49.97s0-.017-.02-.017c-1.389-1.123-1.389-2.932 0-4.037 1.387-1.123 3.623-1.123 4.99 0l13.65 11.038c.683.553 1.802.553 2.506 0 .684-.553.684-1.457 0-2.027l-13.648-11.04-3.75-3.031c-.89-.72-1.242-1.776-.91-2.764.33-.989 1.284-1.76 2.506-2.027 1.222-.268 2.526.016 3.417.737l.02.017 16.3 13.183c.684.553 1.802.553 2.486 0 .683-.553.683-1.457 0-2.01l-16.32-13.184-.022-.017c-.02-.016-.02-.016-.04-.016l-2.466-1.994c-1.387-1.122-1.387-2.931 0-4.037 1.388-1.105 3.625-1.122 4.992 0 .02.017.041.017.041.034l5.965 4.824c.062.067.145.134.249.201l10.127 8.175c.456.368 1.098.502 1.72.368.6-.133 1.076-.519 1.242-1.005.166-.485-.021-1.021-.456-1.373l-10.148-8.192a.231.231 0 00-.104-.084v-.016c-1.263-1.123-1.222-2.865.125-3.937 1.387-1.072 3.603-1.072 4.991 0l6.234 5.042c.041.034.083.034.124.067.187.118.394.218.622.268a.958.958 0 00.145.05c.124.017.248.034.372.034.207 0 .435-.033.622-.1.062-.017.103-.05.165-.067a1.7 1.7 0 00.394-.218c.021-.017.041-.017.062-.034.041-.033.041-.067.083-.1a1.65 1.65 0 00.228-.285c.041-.067.083-.134.103-.201.021-.05.042-.084.062-.134 2.983-11.073.249-20.705-7.456-26.4zm4.66 23.185l-3.831-3.1c-2.796-2.16-7.187-2.16-9.983 0-.87.721-1.491 1.592-1.823 2.564L84.46 26.75c-.02-.017-.062-.034-.082-.05-2.444-1.944-6.276-2.178-9.051-.553-2.775 1.625-3.707 4.623-2.196 7.12-2.444.368-4.452 1.758-5.302 3.634-.849 1.876-.414 3.987 1.16 5.545-1.242.235-2.382.754-3.272 1.474-2.734 2.228-2.755 5.813-.02 8.058.02.017.02.033.02.033L78.102 62.03c-7.808 5.544-16.196 10.537-25.06 14.925-8.865-4.388-17.253-9.38-25.06-14.925l12.385-10.018c.02-.017.02-.033.02-.033 2.713-2.245 2.713-5.83-.02-8.058a7.522 7.522 0 00-3.273-1.474c1.574-1.558 2.01-3.652 1.16-5.545-.85-1.893-2.858-3.266-5.281-3.652 1.305-2.177.766-4.79-1.347-6.516-2.754-2.144-7.104-2.161-9.92-.05-.042.017-.062.033-.104.05l-1.926 1.558c-.31-.972-.932-1.86-1.802-2.58-2.734-2.211-7.186-2.228-9.941-.033-.02.016-.041.016-.041.033l-3.832 3.1c-1.595-8.93.89-16.518 7.042-21.074 5.613-3.937 13.11-5.612 20.442-4.59 8.305 1.122 15.409 5.46 19.965 12.212.331.435.932.687 1.553.687.622 0 1.222-.269 1.554-.687C59.193 8.592 66.276 4.253 74.58 3.148c7.311-1.022 14.83.67 20.442 4.59 6.11 4.573 8.595 12.161 7 21.107z" fill="#00A092"></path>
  </symbol>
    <symbol fill="none" xmlns="http://www.w3.org/2000/svg" viewBox="0 0 100 80" id="dollar">
    <path fill-rule="evenodd" clip-rule="evenodd" d="M100 6.408v47.19l-.036.04c-.046.05-.094.103-.094.168-.653 2.651-2.532 4.488-5.611 5.594-.261.083-.47.46-.496.71-.04 1.58-.034 3.162-.03 4.743.002.527.004 1.054.004 1.58 0 1.879-.313 3.778-1.696 5.281-1.41 1.524-1.566 3.11-1.436 4.842.018.168.012.345.006.519-.003.086-.006.17-.006.254C90.58 79.038 89.431 80 87.291 80h-24.4c-2.087 0-3.262-.94-3.288-2.609-.017-.96-.011-1.91-.006-2.862v-.002c.003-.477.006-.955.006-1.435 0-2.067-1.07-2.985-3.653-3.131-4.306-.25-7.594-2.4-8.612-5.594-.47-1.482-.287-2.922.34-4.445H9.681C3.914 59.922 0 56.79 0 52.179V7.596C0 4.633 1.592 2.38 4.828.94 5.508.63 6.28.446 7.05.261c.322-.077.645-.154.96-.24C35.986 0 63.988 0 91.988 0c.092.02.183.047.275.073.09.026.182.052.273.073 3.523.605 5.846 2.296 7.02 5.01.166.36.29.755.409 1.137l.035.115zm-7.02 48.129c.966-.689 1.148-1.503 1.148-2.421V7.91c0-2.191-1.252-3.214-3.966-3.214H9.786c-2.688 0-3.94 1.002-3.94 3.152v44.205c0 2.15 1.252 3.173 3.914 3.173h48.72c.317 0 .633-.018.971-.038l.073-.004V44.853h-1.122c-.95 0-1.895.002-2.84.004h-.002c-1.887.005-3.77.01-5.665-.004-6.707-.042-12.161-4.342-12.266-9.622-.104-5.49 5.115-9.998 11.979-10.06a1076.36 1076.36 0 0125.965 0c7.96.104 13.622 6.428 11.352 12.544-1.227 3.339-3.993 5.53-8.064 6.678-.313.084-.783.334-.783.501-.039 1.295-.034 2.59-.03 3.928.003.452.004.91.004 1.374h6.237c3.053 0 5.585.918 7.464 2.838.323.32.59.672.883 1.057.11.144.222.293.343.446zm-8.246 20.725c0-.293.003-.574.006-.847a32.91 32.91 0 00-.006-1.511c-.026-.793.287-1.461.965-2.046 1.514-1.273 2.166-2.796 2.166-4.55V57.96c0-2.025-1.304-3.068-3.862-3.068h-8.585c-2.062 0-3.21-.898-3.236-2.547-.018-1.335-.012-2.67-.006-4.006.003-.669.006-1.337.006-2.005l.003-.939c.005-.939.01-1.878-.03-2.817-.052-1.503-1.304-2.588-3-2.714-2.088-.146-3.68 1.086-3.68 2.88-.017 3.215-.012 6.429-.006 9.637v.005c.003 1.602.006 3.203.006 4.802 0 1.857-1.096 2.713-3.419 2.734-.94.01-1.885.005-2.831 0s-1.892-.01-2.831 0c-2.01.042-3.42 1.127-3.445 2.588-.052 1.482 1.357 2.65 3.366 2.755l.313.01c.418.014.836.027 1.253.094 4.462.668 7.49 3.527 7.594 7.18.017.597.012 1.193.006 1.796-.003.304-.006.61-.006.917h19.259zM77.61 39.885c.254-.164.518-.317.781-.47.576-.334 1.146-.666 1.593-1.095 1.749-1.628 2.114-3.507.992-5.468-1.148-2.004-3.184-3.048-5.95-3.068-5.546-.014-11.093-.01-16.647-.005h-.007c-2.78.002-5.561.005-8.346.005-.496 0-.992.02-1.461.104-3.288.584-5.402 2.964-5.037 5.677.313 2.525 3.106 4.529 6.394 4.55 1.308.009 2.616.006 3.926.004 1.748-.004 3.5-.007 5.26.017.73 0 1.043-.188 1.357-.71 2.792-4.905 10.934-5.844 15.292-1.753.448.445.823.92 1.243 1.451.19.241.39.494.61.761zM18.737 47.42c-2.114-.355-3.236-1.315-3.053-2.609.182-1.398 1.487-2.15 3.653-2.15h2.349c1.93-.02 3.366-1.148 3.392-2.63.026-1.481-1.383-2.608-3.314-2.692-4.358-.188-7.776-2.233-8.873-5.343-1.252-3.61.783-7.138 5.115-8.724.522-.188.783-.397.835-.898.105-1.294 1.227-2.17 2.714-2.254 1.54-.083 2.688.689 3.106 2.004.052.209.365.459.626.5 1.696.335 2.662 1.295 2.505 2.568-.156 1.21-1.33 2.045-3 2.108-.61.014-1.219.01-1.828.005a92.455 92.455 0 00-.913-.005c-2.166.02-3.653 1.127-3.653 2.671.026 1.524 1.487 2.61 3.575 2.672 4.175.125 7.672 2.338 8.664 5.51 1.122 3.507-1.07 7.096-5.193 8.6-.34.124-.705.458-.757.73-.235 1.419-1.253 2.316-2.792 2.379-1.566.063-2.688-.71-3.08-2.129 0-.07-.023-.14-.046-.209a1.534 1.534 0 01-.032-.104zm19.155-35.022c0 1.294 1.304 2.316 2.922 2.316 1.592-.02 2.923-1.064 2.923-2.337 0-1.273-1.383-2.359-2.949-2.338-1.592 0-2.896 1.086-2.896 2.359zm-9.656 2.316c-1.592 0-2.896-1.022-2.922-2.316 0-1.294 1.278-2.338 2.87-2.359 1.592-.02 3.001 1.107 2.975 2.38 0 1.252-1.33 2.295-2.923 2.295zM12.735 12.44c.026 1.252 1.383 2.295 2.975 2.275 1.618-.021 2.87-1.044 2.87-2.338s-1.305-2.359-2.896-2.338c-1.592 0-2.975 1.127-2.95 2.4z" fill="#00A092"></path>
  </symbol>
    <symbol fill="none" xmlns="http://www.w3.org/2000/svg" viewBox="0 0 80 80" id="vegetables">
    <path d="M6.667 68h2.667c.733 0 1.333-.6 1.333-1.333 0-.734-.6-1.334-1.333-1.334H6.667c-.733 0-1.333.6-1.333 1.334 0 .733.6 1.333 1.333 1.333zm64 0h2.667c.733 0 1.333-.6 1.333-1.333 0-.734-.6-1.334-1.333-1.334h-2.667c-.733 0-1.333.6-1.333 1.334 0 .733.6 1.333 1.333 1.333zm-64 8h2.667c.733 0 1.333-.6 1.333-1.333 0-.734-.6-1.334-1.333-1.334H6.667c-.733 0-1.333.6-1.333 1.334 0 .733.6 1.333 1.333 1.333zm32-8h2.667c.733 0 1.333-.6 1.333-1.333 0-.734-.6-1.334-1.333-1.334h-2.667c-.733 0-1.333.6-1.333 1.334 0 .733.6 1.333 1.333 1.333zm0 8h2.667c.733 0 1.333-.6 1.333-1.333 0-.734-.6-1.334-1.333-1.334h-2.667c-.733 0-1.333.6-1.333 1.334 0 .733.6 1.333 1.333 1.333zm32 0h2.667c.733 0 1.333-.6 1.333-1.333 0-.734-.6-1.334-1.333-1.334h-2.667c-.733 0-1.333.6-1.333 1.334 0 .733.6 1.333 1.333 1.333zM21.934 41.417a1.321 1.321 0 00-1.734-.75l-2.483.966a1.321 1.321 0 00-.75 1.734 1.321 1.321 0 001.733.75l2.484-.967a1.347 1.347 0 00.75-1.733z" fill="#00A092"></path>
    <path d="M78.3 32.017c.35-3.3-1.9-6.317-5.167-6.917-3.433-5.233-10.466-6.683-15.683-3.233a11.488 11.488 0 00-3.233 3.233c-.75.133-1.467.4-2.117.8l5.167-13.417a1.324 1.324 0 00-.767-1.716c-.017 0-.033-.017-.05-.017l-4-1.333a1.32 1.32 0 00-1.667.783l-1.45 3.683V1.333C49.333.6 48.733 0 48 0h-5.333c-.734 0-1.334.6-1.334 1.333v12.55l-1.416-3.7A1.32 1.32 0 0038.25 9.4l-4 1.333c-.7.234-1.083.984-.85 1.684 0 .016.017.033.017.05l5.716 14.85A13.09 13.09 0 0140 31.983v1.5c-.45.167-.867.367-1.283.617l-.45-.9A6.935 6.935 0 0032 29.333h-3.167c-.733 0-1.333.6-1.333 1.334 0 .2.05.416.133.6l1.1 2.2A6.935 6.935 0 0035 37.333h.367c-.5.8-.867 1.667-1.1 2.567-2.05-2.067-5.384-2.1-7.45-.067-.15.15-.284.3-.417.467l-.317.383a9.93 9.93 0 00-.833 1.217l-1.183-4.1a8.716 8.716 0 00-3.434-4.733c2.4-1.8 3.3-4.967 2.2-7.75a6.719 6.719 0 00-6.95-4.2C12.5 18.25 7.45 18.65 4.583 22a8.06 8.06 0 00-1.866 4.25 6.741 6.741 0 00-2.267 7.8 6.656 6.656 0 006.883 4.217 8.66 8.66 0 00.684 5.816l4.616 9.25h-11.3c-.733 0-1.333.6-1.333 1.334v24C0 79.4.6 80 1.333 80h77.334C79.4 80 80 79.4 80 78.667v-24c0-.734-.6-1.334-1.333-1.334h-8.35c.15-.933.466-1.85.916-2.683.134 0 .284.017.434.017 4.416 0 8-3.584 8-8a7.94 7.94 0 00-.6-3.034 6.329 6.329 0 00-.767-7.616zM63.767 51.1a11.47 11.47 0 00-.95-2.717 7.97 7.97 0 00.833-.45c.333.2.667.367 1.017.534-.4.833-.7 1.716-.9 2.633zm-3.517-1.883a8.258 8.258 0 011.083 4.116h-1.416a10.86 10.86 0 00-.984-3.366c.467-.2.9-.45 1.317-.75zM56.3 50.65c.467.833.783 1.75.933 2.683h-3.966a6.441 6.441 0 00-1.134-2.5l-1.416-1.9a7.934 7.934 0 004.966 1.734c.2 0 .4 0 .617-.017zm-11.15 1.6a9.997 9.997 0 00.8-9l1.85-4.55c.133.317.283.633.467.933A7.98 7.98 0 0048 44.95v4.383c0 .284.1.567.267.8l1.716 2.3c.2.284.384.584.5.9h-6.016l.683-1.083zm7.633-39.917l1.467.484-5.217 13.55a15.915 15.915 0 00-1.016 4.65l-3.8 9.366-.067-.083a5.291 5.291 0 00-1.5-1.283V37l10.133-24.667zM44 20.667v-18h2.667V20.3c0 .133.016.25.05.367l-1.384 3.616L44 20.8v-.133zm-7.583-7.85l1.466-.484 5.434 14.117c.216.55.366 1.117.483 1.7l-1.183 2.583c-.117-1.5-.45-2.966-.984-4.366l-5.216-13.55zM40 36.733v1.6a5.23 5.23 0 00-2.533.667A6.649 6.649 0 0140 36.45v.283zm-8.867-4.466L31 32h1c1.65 0 3.15.917 3.883 2.4l.134.267h-1c-1.65 0-3.167-.917-3.884-2.4zm-2.983 10.1l.317-.384a2.614 2.614 0 013.666-.4c.217.167.384.367.534.584a3.138 3.138 0 005.216 0A2.61 2.61 0 0140.9 41.15s.017 0 .017.017c.45.166.85.45 1.15.833l.316.383a7.354 7.354 0 01.5 8.467l-1.566 2.5h-12.1l-1.567-2.5a7.407 7.407 0 01.5-8.483zm-4.25 4.066c0-.016 0-.016-.017-.033l.017.033zM2.95 33.083a4.016 4.016 0 011.717-4.916c.4-.234.65-.65.666-1.117a5.34 5.34 0 019.15-3.583c.317.333.8.466 1.25.366a4.029 4.029 0 014.6 2.45c.8 2.05-.2 4.367-2.25 5.167-.283.117-.6.2-.9.233-.05 0-.1-.016-.133-.016a7.554 7.554 0 011.8-3.517c.5-.55.467-1.383-.083-1.883a1.324 1.324 0 00-1.884.083l-.016.017a10.395 10.395 0 00-2.467 4.95 1.143 1.143 0 00-.6.216l-1.883-4.816a1.321 1.321 0 00-1.734-.75 1.321 1.321 0 00-.75 1.733l1.867 4.8a1.223 1.223 0 00-.583.25 10.253 10.253 0 00-5.167-1.967 1.33 1.33 0 00-1.45 1.2 1.33 1.33 0 001.2 1.45A7.75 7.75 0 019 34.8c-.033.033-.05.083-.083.117-1.817 1.25-4.3.8-5.55-1.017a3.772 3.772 0 01-.417-.817zm11.7 18.334l2.25-.884a1.33 1.33 0 00-.95-2.483h-.017l-2.483.967-1.2-2.4 1.467-.567a1.321 1.321 0 00.75-1.733c-.284-.7-1.034-1.034-1.734-.75l-1.683.666-.667-1.333a5.989 5.989 0 01.4-6.033c.5-.4.934-.85 1.3-1.367.45-.333.934-.617 1.467-.817a5.989 5.989 0 011.633-.383c.617.133 1.25.183 1.884.133.45.1.883.267 1.3.467a5.918 5.918 0 013.1 3.7l2.116 7.333c.017.034.017.05.034.084a1.345 1.345 0 00-1.484-.367l-1.25.483a1.321 1.321 0 00-.75 1.734 1.321 1.321 0 001.734.75l1.25-.484c.366-.133.633-.433.766-.8a9.964 9.964 0 001.517 4.934l.683 1.083H15.617l-.967-1.933zm62.683 17.916H2.667V64h74.666v5.333zm0 8H2.667V72h74.666v5.333zm0-16H2.667V56h74.666v5.333zm-9.716-8H66.2c0-1.4.35-2.783 1.033-4 .417.284.867.517 1.334.717-.484 1.033-.8 2.15-.95 3.283zM76.5 38.65c-.35.417-.4 1-.15 1.483 1.4 2.6.433 5.834-2.167 7.234A5.386 5.386 0 0171.65 48c-1.183 0-2.333-.4-3.267-1.117a1.32 1.32 0 00-.65-.266 7.015 7.015 0 01-3.283-1.334 1.35 1.35 0 00-1.6 0 6.945 6.945 0 01-3.283 1.334 1.32 1.32 0 00-.65.266A5.173 5.173 0 0155.65 48a5.328 5.328 0 01-5.333-5.333c0-.884.216-1.75.633-2.534a1.34 1.34 0 00-.15-1.483 3.676 3.676 0 01-.333-4.167c.216-.366.483-.683.816-.966a1.34 1.34 0 00.45-1.334 3.671 3.671 0 012.717-4.416c.2-.05.4-.084.6-.1.45-.034.85-.284 1.067-.667a8.67 8.67 0 0115.033 0c.217.383.617.633 1.067.667a3.671 3.671 0 013.416 3.9c-.016.2-.05.4-.1.6-.116.5.05 1 .45 1.333a3.685 3.685 0 011.317 2.817 3.377 3.377 0 01-.8 2.333z" fill="#00A092"></path>
    <path d="M63.667 25.333a5.361 5.361 0 00-5.034 3.55c-.25.7.117 1.45.817 1.7s1.45-.116 1.7-.816c.5-1.384 2.017-2.117 3.4-1.617.767.267 1.35.867 1.617 1.617.25.7 1 1.05 1.7.816.7-.25 1.05-1 .816-1.7a5.323 5.323 0 00-5.016-3.55zM57 34.667c.733 0 1.333-.6 1.333-1.334 0-.733-.6-1.333-1.333-1.333a3.99 3.99 0 00-4 4c0 2.217 1.783 4 4 4 .733 0 1.333-.6 1.333-1.333 0-.734-.6-1.334-1.333-1.334s-1.333-.6-1.333-1.333.6-1.333 1.333-1.333zM9.334 57.333H6.667c-.733 0-1.333.6-1.333 1.334 0 .733.6 1.333 1.333 1.333h2.667c.733 0 1.333-.6 1.333-1.333 0-.734-.6-1.334-1.333-1.334zM70.667 60h2.667c.733 0 1.333-.6 1.333-1.333 0-.734-.6-1.334-1.333-1.334h-2.667c-.733 0-1.333.6-1.333 1.334 0 .733.6 1.333 1.333 1.333zm-29.333-2.667h-2.667c-.733 0-1.333.6-1.333 1.334 0 .733.6 1.333 1.333 1.333h2.667c.733 0 1.333-.6 1.333-1.333 0-.734-.6-1.334-1.333-1.334zm-9.9-6.666c.733 0 1.333-.6 1.333-1.334 0-.35-.133-.7-.383-.95a1.288 1.288 0 01-.234-1.483l.484-.983a1.333 1.333 0 00-.617-1.784c-.65-.316-1.45-.05-1.767.584l-.483.983a3.957 3.957 0 00.733 4.567c.234.266.584.4.934.4z" fill="#00A092"></path>
  </symbol>
    <symbol fill="none" xmlns="http://www.w3.org/2000/svg" viewBox="0 0 26 22" id="arroy-right">
    <path fill-rule="evenodd" clip-rule="evenodd" d="M14.069.12c-.182.08-.348.195-.487.342-.14.146-.25.319-.326.51a1.638 1.638 0 000 1.204c.075.19.186.364.326.51L19.609 9H2.46c-.424 0-.831.21-1.131.586-.3.375-.47.884-.47 1.414 0 .53.17 1.04.47 1.414.3.375.707.586 1.13.586H19.61l-6.028 6.315a1.61 1.61 0 00-.44 1.112c0 .417.158.817.44 1.112.281.295.663.461 1.061.461.398 0 .78-.166 1.062-.46l8.996-9.427c.14-.146.25-.32.326-.51a1.639 1.639 0 000-1.205 1.578 1.578 0 00-.326-.51L15.705.462a1.497 1.497 0 00-.487-.342 1.44 1.44 0 00-1.15 0z" fill="#fff"></path>
  </symbol>
</svg>
